<?xml version="1.0" encoding="UTF-8"?>
<svg id="Capa_1" data-name="Capa 1" xmlns="http://www.w3.org/2000/svg" viewBox="0 0 204.94 100.96"><metadata><?xpacket begin="" id="W5M0MpCehiHzreSzNTczkc9d"?><x:xmpmeta xmlns:x="adobe:ns:meta/" x:xmptk="XMP Core 6.0.0"><rdf:RDF xmlns:rdf="http://www.w3.org/1999/02/22-rdf-syntax-ns#"><rdf:Description rdf:about="" xmlns:xmp="http://ns.adobe.com/xap/1.0/" xmlns:xmpMM="http://ns.adobe.com/xap/1.0/mm/" xmlns:dc="http://purl.org/dc/elements/1.1/" xmlns:dcterms="http://purl.org/dc/terms/" xmpMM:DocumentID="xmp.did:cb9f5498-bb58-4572-8043-8c369e6bfb9b" xmpMM:InstanceID="xmp.iid:cb9f5498-bb58-4572-8043-8c369e6bfb9b" dcterms:provenance="https://cai-manifests.adobe.com/manifests/urn-c2pa-bdc9c08a-2a11-4c92-bee4-2146436db324-adobe"> </rdf:Description></rdf:RDF></x:xmpmeta>
<?xpacket end="w"?></metadata>
  <defs>
    <style>
      .cls-1 {
        fill: #f2b5ce;
      }

      .cls-2 {
        fill: #bb3984;
      }

      .cls-3 {
        fill: #f173b4;
      }

      .cls-4 {
        fill: #f2acc9;
      }

      .cls-5 {
        fill: #f15bac;
      }

      .cls-6 {
        fill: #300c22;
      }

      .cls-7 {
        fill: #f154a9;
      }

      .cls-8 {
        fill: #f161af;
      }

      .cls-9 {
        fill: #f170b4;
      }

      .cls-10 {
        fill: #f2aac6;
      }

      .cls-11 {
        fill: #d24092;
      }

      .cls-12 {
        fill: #f155ab;
      }

      .cls-13 {
        fill: #f3aec8;
      }

      .cls-14 {
        fill: #f166b0;
      }

      .cls-15 {
        fill: #f2b9d0;
      }

      .cls-16 {
        fill: #f3b8cd;
      }

      .cls-17 {
        fill: #f26bb3;
      }

      .cls-18 {
        fill: #f2aecf;
      }

      .cls-19 {
        fill: #d0398e;
      }

      .cls-20 {
        fill: #bd3786;
      }

      .cls-21 {
        fill: #f061ae;
      }
    </style>
  </defs>
  <g id="Objeto_generativo" data-name="Objeto generativo">
    <g>
      <path class="cls-6" d="M156.76,61.63c-9.72,11.3-20.81,19.57-35.31,23.68-11.63,3.29-23.95,3.49-35.68.6-5.96-1.47-11.51-3.71-16.84-6.68-4.14-2.31-7.86-5.01-11.41-8.15-2.7-2.39-5.22-4.81-7.65-7.5-5.9-6.56-11.01-13.63-15.48-21.25-1.45.84-2.99,1.09-4.62.5-1.22-.45-2.45-1.55-2.94-3.05-.56-1.7-.13-3.47,1-4.76s2.8-1.89,4.6-1.62c2.21.34,3.84,2.06,4.02,4.33,7.18.76,14.72-1.36,21.49-3.76,5.48-1.95,10.64-4.23,15.75-6.96l5.81-2.88c7.97-3.49,16.52-1.67,22.98,4.11,6.67-5.95,15.47-7.65,23.62-3.84l6.6,3.34c4.1,2.08,8.15,3.93,12.48,5.51,7.25,2.65,15.61,5.37,23.28,4.45.23-2.51,2.31-4.33,4.82-4.37,2.8-.05,5.04,2.13,5.06,4.84s-2.09,4.92-4.9,4.95c-1.01.01-1.94-.29-2.89-.77l-5.15,8.06c-2.57,4.02-5.53,7.6-8.64,11.23Z"/>
      <g>
        <path class="cls-14" d="M82.78,31.94c0-.62,1.16-.81,1.52-.35.76.03,1.52.02,2.28-.02.17.74.44,1.41.81,2,1.37.1,2.74.24,4.08.58,1.02-.2,2.01-.23,2.95-.09-.12-1.6,1.16-1.23,2.16-.78l2.81,1.34c1.4-.13,4.67-.36,3.18,1.91-.24.68.17,1.05.79.73.1-.05,1.5-1.56,1.45-1.66-.73-.69-.35-.89.43-1.15,1.05-.11,1.39-.25,1.97-1.08.03-.49.31-.57.58-.16,1.15-.45,1.51.09,1.08,1.62,1.23.43,1.4.9,1.33,2.13l3.37.59c-.07-.45-.39-.72-.96-.79-1.73-.49-2.76-3.64-.05-2.85.94-.16,1.85-.1,2.73.18,1.24-.41,2.48-.69,3.73-.82.68.23,1.08.79,1.21,1.67.54.76,1.88,1.75,2.51.64.29-1.01.68-1.98,1.16-2.9.54-.42,1.01-.88,1.44-1.41.55-.01.89.36,1.03,1.13-.34,1.43,1.59,2.61,2.44,1.28-.38-.23-.29-.4.15-.3l.11-.51c-.16-.75.16-1.26.96-.99.35-.44.49-.98.42-1.64.35-.22.77-.21,1.25.03.56.4,1.17.65,1.84.74,5.82,2.86,11.91,5.19,18.11,7.11.09.26-.01.51-.3.76l-.02.36c2.46,1.19-.18,2.37-1.76,2.37l-.6.2c-.42.76-.93,1.4-1.52,1.91-.76,0-1.51-.02-2.26-.05.37.59.38.97.03,1.12-1.03.4-2.14.54-3.33.43-5.52-.18-10.91-.62-16.17-1.34-3.35-.23-6.72.08-10.01.73l-9.06,2.12c-2.63.46-5.33.59-7.97.11-3.96-1.05-8.02-1.96-12.15-2.73-3.1-.19-4.65-.29-4.65-.29-5.03.4-10.12.85-15.27,1.35-.94.16-1.81.08-2.63-.24l-.65-.26c-1.04.05-2.31-.11-2.91-1.07-.71-.34-.95-1.02-.72-2.05-.68-.41-1.05-1.01-.51-1.72-.13-.9-.28-1.78-.45-2.64,0,0-.94.27-2.82.8-.42.3-2.16,1.13-2.34.41-.02-.09-.02-.18-.02-.27,6.84-2.1,13.47-4.9,19.9-8.07.73-.09,1.44-.33,2.13-.74.57.11.59.46.06,1.07.19.27.3.55.32.84-.52.9-.66,3.5.97,3.06.91-.25,1.15-1.98.4-2.6-.09-1,.6-1.15,2.08-.44.12,1.76,2.26,1.18,3.38.74Z"/>
        <path class="cls-19" d="M42.87,40.29c0,.3.2.45.49.58,2.35,1.08,5.41,1.85,7.96,2.41,4,.88,8.02,1.21,12.1,1.42l.56.21c3.14-.01,6.25-.34,9.47-.67l6.7-.7c4.21-.24,8.25.35,12.32,1.4l5.02,1.3c3.11.8,6.26.68,9.42.1l6.23-1.51c4.19-1.01,8.3-1.58,12.6-1.29l6.66.76c4.31.49,8.56.73,12.81.46.36-.18.72-.35,1.12-.4,5.45-.74,10.29-1.44,15.47-3.53.3-.12.48-.25.43-.54,1.7.16,3.41.06,5.15.09-6.09,3.53-12.45,5.61-19.2,6.85-5.91,1.09-11.8,1.26-17.8.95l-6.64-.34c-3.65-.19-7.07.55-10.55,1.61l-6.39,1.96c-3.1.71-6.19.84-9.21-.14l-5.58-1.81c-3.3-1.07-6.58-1.77-10.07-1.6l-6.32.31c-9.26.46-17.1,0-26.04-2.66-4.23-1.26-8.23-2.88-12.03-5.15,1.9.05,3.56.05,5.29-.09Z"/>
        <path class="cls-5" d="M63.97,44.91c-7.63.03-15.23-1.34-22.29-4.38.47-.11.91.09,1.18-.24,3.62-.31,7.2-1.12,10.68-2.19.53.46,1.29.14,1.84-.23s1.23-.33,1.87-.54c.44-.14.99-.66,1.55-.48.48.16.37,1.09.45,1.53l.26,1.46c.03.18-.38.4-.28.69.08.22.16.45.46.6.67.33.07.94.34,1.78.07.22.51.29.65.5.28.4.45.58.93.7.51.13.98.41,1.62.28.47-.09-.31-.72-.34-1.02-.02-.22.19-.31.35-.51l.59-.76.89.5c.36.2.69.5,1.04.85-.74.49-1.35.57-2.11.85.06.24.19.42.32.61Z"/>
        <path class="cls-12" d="M162.24,40.29c.26.26.65.16,1.26.2-5.75,2.42-11.96,3.86-18.28,4.27.09-.64-.8-1.23-.29-1.38.73-.22,1.45.05,2.19.06.85.02,1.1-1.67,1.77-1.97,1.22-.54,3.11-.07,3.1-1.47,0-.3-.67-.43-.9-.35-.24-1.01.05-1.06.57-1.55,3.45,1.07,6.99,1.87,10.58,2.2Z"/>
        <circle class="cls-20" cx="31.59" cy="38.2" r="1.93"/>
        <circle class="cls-2" cx="173.35" cy="38.21" r="1.93"/>
        <path class="cls-13" d="M97.83,31.57l1.95,1.5c.64.05,1.1.68.77,1.27-1.37.47-7.67-4.52-16.25-2.76-.49.1-1.1.06-1.52.35-1.31.24-2.93.33-3.16-.43-.33-1.1,2.34-2.16,3.98-2.68,2.98-.95,6.06-.99,9.06.01,1.9.63,3.65,1.55,5.17,2.73Z"/>
        <g>
          <path class="cls-9" d="M133.56,30.99c-.59.21-1.33-.07-1.77-.58l-1.13-.07c.26.82-.02,1.41-.55,1.94-.19-.18-.41-.22-.56-.17-.38.14-.28.91-.58,1.26l-.3-.19c-.62-3.07-3.49.7-.48.55.22-.2.43-.22.63-.07-.03.34-.21.62-.64.66-.81.07-1.65-.29-1.89-1.1-.19-.63-.27-1.26-.73-1.78l-1.04.99c-1.57,1.5-.88,4.78-3.15,3.79-2.07-.9-1.29-1.94-2.02-2.49-.28-.21-.7-.25-1.08-.14l-2.05.57c-.65.18-.91.37-1.54.08s-1.53,0-2.21-.04c-.44-.03-.81-.25-1.16-.13-.33,1.46.73,2.22,2.16,2.64.22.11.43.69.46.96-.22.36-.73.07-1.11,0l-2.47-.37c-1.18-.18.24-1.48-1.08-1.96-.22-.08-.78-.27-.74-.56l.21-1.43c-.32-.13-.68-.17-.97-.16.06-.11.12-.22.2-.31s.15-.18.25-.22c5-2.06,9.57-2.22,14.77-.93,2.36.11,2.16-.77,0-1.79-6.84-3.21-13.34-1.07-18.51,4.08-.23.23,2.17-.79,2.39-.88l.32.21c-.08.27-.12.8-.41,1-.68.47-1.73.09-2.14.69,1.25.85-.31,1.1-1.13,2.54-.33.03-.87.08-1.1-.05-.65-.59-.08-1.3.23-1.71.17-.85-.99-1.01-1.61-.95s-1.12-.34-1.65.31c.48.17.64.69.39,1.2.2.36.58.49.71,1l-2.99.32c-.15.02-.33-.15-.4-.21-.3-.26.68-.96.93-2.23.55.03.99-.01,1.38-.31-1.18-.4-2.06-.78-2.95-1.46l-.84-.27c-.38-.12-.61-.07-.81.15-.15.17-.21.68.1.74.49.09.82.12,1,.61s.27.8.06,1.22c-.19.38-.69.4-1.11.58-.2.09-.37.73-.85.29-.08-.07,0-.35,0-.44-.01-.37-.67-.17-.84-.59-.37-.91,1.15-.39,1.44-1.32-1.68-.72-2.36.53-4.33-.29l-3.02-.32c-.63-.31-.7-1.46-.87-2.08l-1.25.08-.86-.27c.08-.1.15-.19.25-.26s.18-.14.27-.16c5.26-.85,9.86.54,14.55,2.64.51.09.9.27,1.18.53.29-.7-.13-1.09-.77-1.27-.29.19-.63.06-1.02-.39-.63-.32-.94-.7-.93-1.11-.96-.84.85-1.94,1.63-2.27l1.15.65c.89.55,1.64,1.98,2.45,1.16,3.09-3.14,7.01-5.28,11.38-5.95,3.93-.61,7.55.15,11.05,1.87l8.07,3.96Z"/>
          <path class="cls-10" d="M107.8,33.2c-.18,0-.41.09-.58.16l-2.48,1.01c-.21.09-.39.04-.48-.06-.13-.15-.12-.38.05-.54,2.07-2.06,4.43-3.74,7.21-4.75,4.41-1.61,9.28-1.06,13.12,1.52.39.26.52.96.17,1.19-.67.46-1.55.39-2.34.23-2.21-.42-4.33-.84-6.61-.77-2.85.09-5.53.9-8.07,2Z"/>
          <path class="cls-18" d="M128.97,33.37c-.06.06-.14.21-.15.3-.42.42-.91.59-1.41.4-.53-.21-.84-.6-.87-1.1-.04-.55.27-1.01.81-1.22s.95.04,1.26.34c.37.36.43.8.36,1.29Z"/>
          <path class="cls-14" d="M126.65,30.09c-.88.8-1.78.34-2.94-.42.21-.53.8-.84,1.42-.94l-.04-1c.47-.24,1.36.02,1.46.56-.24.22-.72.47-.69.91.02.39.27.65.79.89Z"/>
          <path class="cls-3" d="M100.55,34.34c.03-.27-.09-.53-.33-.79l-.44-.48c.4-.07.85-.14.98.34.08.27.17.81-.21.94Z"/>
        </g>
        <g>
          <path class="cls-3" d="M100.61,29.95c-.31.08-.56-.23-.9-.33-.51-.14-1.03.56-1.39.8-.47.31-.63.66-.48,1.14l-.67-.11c-4.69-3.34-9.81-3.86-15.06-1.75-2.98,1.2-2.92,2.52.43,1.95l.25.28c-.63.44-1.5.8-2.34.75-.74-.05-1.13-.56-1.23-1.29-.99-.02-1.17-.67-1.59-.24s1.09,1.04.24,2.49c-.29.5-.48.87-1.08.93-.44.05-.83-.21-1.17-.55-.79-.81-.24-1.75.04-2.99-.07-.2-.42-.52-.33-.76.08-.22.17-.42.51-.64-.68-.38-1.24.98-2.4.37l6.85-3.38c6.76-3.33,14.8-1.58,20.31,3.29Z"/>
          <path class="cls-4" d="M76.63,31.71c.65,0,1.23.58,1.24,1.12.02.68-.57,1.19-1.14,1.26-.64.08-1.23-.44-1.28-.97-.07-.77.43-1.4,1.18-1.41Z"/>
        </g>
        <g>
          <path class="cls-11" d="M130.27,51.12c9.65.55,19.96-.83,29.07-4.1,2.56-.92,4.86-2.06,7.37-3.32-4.22,6.94-8.94,13.22-14.33,19.04l-4.26,4.32c-3.98,3.76-8.23,7.08-13.03,9.83-8.21,4.7-17.33,7.47-26.77,8.24-12.27,1-24.34-1.06-35.3-6.53-5.98-2.98-11.31-6.9-16.13-11.45l-4.03-4.05-2.36-2.56c-4.52-5.25-8.62-10.73-12.3-16.83,3.41,1.67,6.6,3.13,10.13,4.21,4.49,1.38,8.9,2.33,13.6,2.8,4.14.54,8.13.58,12.3.47l7.26-.2c3.16-.09,6.14.32,9.13,1.31l5.69,1.9c3.76,1.25,7.64,1.25,11.48.26l6.73-2.09c2.35-.73,4.68-1.44,7.16-1.39l8.59.15Z"/>
          <path class="cls-21" d="M76.62,54.24c-.59,0-1.18.23-1.96.05.17.33.24.64.15.84-.28.7-2.06.4-2.24,2.57-1.58.49-2.76-.31-3.06,1.22.42.2.22.94-.11,1.21-.22,1.05,1.47,1.55.78,2.12-.45-.01-.79-.45-1.12-.65-1.12.44-.27,1.81-.96,2.15.14-1.07.1-1.93-.16-2.96l.1-1.36c.02-.3-.32-.49.03-.75.02-.55.36-.97.96-1.04.24-.73.63-1.3,1.1-1.9-.1-.37-.41-.48-.7-.48-.36,0-.46.31-.59.62-.18.43-.76.16-1.02.23-.91.25-1.24,1.21-1.55,1.94-.22.53-.37.81-.04,1.36.53.91-.26,4.74-.6,4.7-.82-.09-.4-2.63-.96-2.93-.17-.09-.45-.12-.5.11l-.35,1.45c-.36-.32.08-1.1-.38-1.29-.82-.33-.65,1.51-1.22,2.48-.31-.28-.3-.55-.34-.69-.06-.21-.57-.51-.72-.3l-.75,1.02c-.28-.31-.49-.65-.83-.74-.2-.05-.37.28-.41.42-.14.56.79.68.94,1.71.74-.11.87.49,1.21.79l1.11.97,2.15,1.46,2.82,1.64.58,1.3c.74.06.99.69,1.44,1.06.57.47,1.43.3,2.12.45.28.06.3.72.52.84l1.91.99c.32.16.35.81.93.81.74,0,1.11.56,1.58.88-7.89-3.47-15-8.97-21.12-15.14-3.53-3.69-6.75-7.5-9.77-11.89,6.94,2.72,13.82,4.33,21.08,4.65,3.42.21,6.65.11,9.97.07Z"/>
          <path class="cls-7" d="M144.8,65.67c.02-.45-.1-.86-.22-1.34,1.11-.57.46-1.66,1.3-2.24.57-.39,1.06-.79,1.52-1.33.37-.43,1.1.4,1.32.17l.35-.37.78-.24c.21-.06.3-.48.26-.76-.1-.69.18-1.18.24-1.83l.14-1.46c-.24-.24-.73-.46-.72-1,.01-.37-.68-1.09-1.02-.69-.26.31-.46,1.35-1.16.95-.26-.15-.57-.44-.97-.59l-1.11-1.01c-.24.4-.52.93-.96.95-.63.03-.88-.67-.79-1.24,4.17-.58,8.27-1.53,12.31-2.94l3.23-1.13-5.73,7.14c-2.65,3.3-5.65,6.22-8.78,8.96Z"/>
          <g>
            <path class="cls-17" d="M129.74,54.25c.92-.07,1.77.03,2.55.31.93,1.21,2.01,2.27,3.25,3.19.31.58.39,1.24.24,1.97.11.58.48,3.59-.4,3.73-.26.04-.45.02-.64-.18-.37,2.02-.77,4.04-1.42,6.01-.55,1.35-1.51,2.2-3,1.61-.99.34-2.01,1.14-2.66,1.99-.93.62-2,.95-3.22.98-2.2,1.39-4.31,2.39-6.95,2.53-1.02.59-1.8.26-2.74-.2-.47-.04-.92.32-1.34,1.07-1.52,1.39-2.48,1.21-4.35.73-1.84.56-3.44.5-5.32.16-.82.17-1.6.18-2.35.03-1.22-.68-2.42-1.25-3.6-.2-1.32.12-2.63.06-3.93-.19-1.57,0-3.13.01-4.67.05-.71-.49-1.51-.83-2.38-1.03-.63-.52-1.3-.65-2-.38-1.42-.15-2.81-.5-4.14-1.05-.64-.54-1.3-1.04-1.99-1.51-1.9-.16-3.21-.49-4.34-2.13-1.14-.65-2.19-1.4-3.14-2.25l-.67-1.17c-.31-1.27-.78-2.47-1.42-3.61-.24-.87-.03-2.52,1.06-2.46-.46-.6-.83-1.22-1.11-1.85l.33-.27.36.06c2.4,3.35,4.75-2.66.54-1.55-.26.28-.53.38-.79.29-.62-.51.2-1.13.84-1.29.66,0,1.31-.07,1.94-.21.21-1.12.95-1.91,2.22-2.37-.07-.39-.02-.64.13-.77l1.98-.04,5.82-.09c3.15-.05,6.09.75,9.07,1.69l5.28,1.67c3.86,1.22,7.83,1.22,11.7,0l6.73-2.1c2.95-.92,5.91-1.47,9.02-1.36l5.51.19Z"/>
            <path class="cls-16" d="M112.53,67.72c-6.82,1.83-15.91,1.86-22.69.05-2.31-.62-5.49-1.93-5.1-4.09.36-2.04,2.77-2.66,4.78-2.17,7.72,1.86,15.65,1.86,23.36-.03,2.04-.5,4.24.35,4.45,2.26.23,2.09-2.59,3.39-4.8,3.98Z"/>
            <path class="cls-15" d="M81.65,64.21c-2.25.47-4.67-.48-5.95-2.27-.78-1.09-.53-2.55.61-3.15,2.38-1.25,5.97.31,6.86,2.72.42,1.14-.15,2.42-1.51,2.7Z"/>
            <path class="cls-1" d="M69.4,60.13c-.13-.39.03-.81.11-1.21.56-.7,1.32-.98,2.25-.74.7.19,1.28.95,1.18,1.83s-.92,1.5-1.76,1.49c-.83,0-1.51-.56-1.78-1.38Z"/>
          </g>
          <g>
            <path class="cls-8" d="M143.76,53.65c.21.18.39.47.54.86.36.14.65-.07.89-.64.53-.18,1.07.09,1.61.81l1.07.63c.81-1.42,1.85-1.64,2.26.18.66.54.83,1.33.52,2.37-.03.29-.27,2.11-.32,2.2-.22.41-.64.67-1.07.76-.36.49-.9.52-1.62.12-.64.6-1.27,1.2-1.88,1.79-.06.7-.32,1.27-.78,1.71.14.48.08.89-.18,1.22-7.59,6.65-15.79,11.59-25.59,14.27-.8-.11-1.78.21-2.51.59-.05.01-.15-.02-.2-.03l-3.78.41-1.25.57-1.54.2c-.45-.1-.89-.13-1.29.11l-3.29.19c-2.17-.06-4.35-.08-6.52,0l-5.52-.48-.71-.4c-.98-.11-1.96-.17-2.94-.21-2.13-.35-4.24-.89-6.29-1.6-.97-.54-2.08-.91-3.17-1.11-1.27-.44-2.62-.89-3.74-1.66-1.55-.83-3.09-1.68-4.62-2.56-.21-.16-.35-.38-.41-.68-.75,0-1.45-.26-2.09-.66-.83-.52-1.93-1.25-2.2-2.2-2.46-1.25-4.66-2.82-6.59-4.71-.52-.15-.77-.36-.97-.88-1.34-.97-.65-2.75.82-1.46.59-.91.94-1.24,1.75-.3.22-1.68.77-2.28,1.64-1.78,1.29-1.54,1.59.72,1.62,1.81,0,.11.12.56.14.54.5-.84.77-3.59.23-4.51,0-1.47.95-3.67,2.75-3.38.15-1.2,2.02-1,1.88,0-.02.12-1.1,1.99-1.19,2.07-.77.15-1.09.89-.86,1.57-.02.22-.16,2.34.14,2.16.8-.45,1.26-.03,1.68.66-.7.56-.99,1.35-.76,2.36l.88,1.7c.1.19.33,2.64,1.87,3.64l2.21,1.43c.58.37.83.95,1.33,1.38.82.69,2.13.57,3.11.83l1.11.76c.41.28.54.74,1.12.81.71.09,1.59.86,3.77.96.41.02.85-.37,1.33-.04,1.37.96,2.21.5,2.99,1.44.12.09.53-.11.69-.06.67.19,1.43.01,2.11.01h1.84c.9.01,1.79.44,2.7.24.42-.09.69-.08,1.15-.02.28.04.62-.5.97-.55,2.27-.36,2.44,1.28,4.28.79,1.48-.39,3.19.64,5.05-.02.76-.27,1.41-.35,2.25,0,1.12.45,2.43-.13,3.15-1l.74-.9c.33-.4,1.17,0,1.53.21.73.41,1.21.12,1.84-.12l2.91-.45,1.73-.77,1.57-.93c.59-.35.95-.57,1.74-.52.62.04,2.02-.5,2.33-1.06.28-.5.74-.73,1.21-1.04.51-.34.99-.96,1.71-.68,1.19.48,2.13-.49,2.49-1.76l.59-2.05.7-3.4c.08-.38-.15-.9.37-1.12l.33.98c.6-.53.61-1.17.54-1.83l-.17-1.62c-.06-.56.29-1.57-.32-2.03-1.29-.98-2.47-2.04-3.38-3.45l-2.03-.09,2.48.03c3.9.1,7.74-.1,11.53-.63Z"/>
            <g>
              <path class="cls-21" d="M116.49,80.51c-.09.2-.33.18-.56.22l-4.47.76c.28-.36.77-.86,1.26-.89l2.35-.13c.5-.03,1.02-.19,1.42.03Z"/>
              <path class="cls-21" d="M105.34,82c-.07.04-.18.1-.34.1h-5.21c-.37,0-.71.07-.97-.11l2.6-.26,2.32.08,1.6.18Z"/>
              <path class="cls-21" d="M93.31,81.51l-3.65-.6c.26-.19.51-.07.83-.07h2.05c.39,0,.65.37.76.68Z"/>
              <path class="cls-21" d="M119.2,79.95l-2.51.59c.8-.8,1.6-.6,2.28-.8.1-.03.26.04.24.21Z"/>
              <path class="cls-21" d="M83.37,79.3l-3.17-1.11c.43-.15.78.05,1.21.2.72.24,1.46.37,1.96.91Z"/>
              <path class="cls-21" d="M109.92,81.7l-1.29.11c.28-.45.86-.39,1.29-.11Z"/>
              <path class="cls-21" d="M100.82,78.37c-.22.57-1.34-.55-2.41-.66.35-.79,2.32.02,2.44.15s.02.4-.02.52Z"/>
              <path class="cls-21" d="M63.96,64.54c-.47-.59-.34-1.26-.06-1.68.33.52.5,1.19.06,1.68Z"/>
              <path class="cls-21" d="M67.42,67.31c-.22-.1-.32-.23-.25-.41.06-.16.23-.26.45-.29.28-.03.47.03.51.26.02.16,0,.36-.16.49-.13.11-.34.03-.54-.06Z"/>
              <path class="cls-21" d="M64.75,66.35c.19.44.38.92.31,1.2-.34.2-.61-.14-.63-.37-.02-.37-.07-.72.31-.83Z"/>
            </g>
          </g>
        </g>
      </g>
    </g>
  </g>
</svg>